<?xml version="1.0" encoding="UTF-8" standalone="no"?>
<svg width="828px" height="204px" viewBox="0 0 828 204" version="1.1" xmlns="http://www.w3.org/2000/svg" xmlns:xlink="http://www.w3.org/1999/xlink" xmlns:sketch="http://www.bohemiancoding.com/sketch/ns">
    <title>stream</title>
    <description>Created with Sketch (http://www.bohemiancoding.com/sketch)</description>
    <defs></defs>
    <g id="Page-1" stroke="none" stroke-width="1" fill="none" fill-rule="evenodd" sketch:type="MSPage">
        <path d="M795.578096,173.527347 C824.773902,157.545565 827,106.253283 827,87 C827,62.736662 819.773451,28.9850695 774.976562,15.9890976 C701.491533,-5.32955747 558.992173,2.5625 419,2.5625 C287.758708,2.5625 191.268118,2.56249962 99.4492156,2.56249997 C90.0546844,2.5625 74.2321941,2.18347048 63.1562507,2.56249997 C47.2851644,3.1056237 34.3449223,6.40760998 27.2382813,9.77734348 C0.0295878178,22.6788051 1.40624999,70.3750035 1.40624999,70.3750035 L1.40624999,87.0000035 C1.40624999,105.343962 5.52861288,138.420881 27.238282,157.832035 C35.057168,164.823094 43.2005714,173.322308 55.6835945,178.332035 C129.588189,207.991664 281.425307,203 419,203 C549.096297,203 737.777315,185.808597 755.76169,185.808597 C773.746065,185.808597 783.714354,180.021559 795.578096,173.527347 Z" id="Oval-1" stroke="#979797" fill-opacity="0.277113971" fill="#3594DD" sketch:type="MSShapeGroup"></path>
        <path d="M759.691248,128.786845 C784.131524,112.004634 797.464844,93.5794098 797.464844,74.9765607 C795.533076,65.1170369 792.696348,51.9288881 773.109375,42.3593759 C757.236492,34.6044381 763.438777,36.7739678 750.695312,34.6835946 C744.926301,33.7372755 771.928076,33.6069484 723.421875,30.1328124 C567.767836,18.9844769 544.102482,18.3828125 399.84375,18.3828125 C268.602458,18.3828125 202.178091,14.2491832 123.203125,25.96875 C105.980106,28.5245771 90.5230623,31.7457562 80.5039051,34.6835938 C44.5809051,45.2170064 43.7851562,66.9967156 43.7851562,87.9140645 C43.7851562,99.2899362 51.3072253,119.219606 66.1484375,132.910157 C84.3684363,149.717529 110.605469,159.339837 110.605469,159.339837 C110.605469,159.339837 145.001204,164.094798 174.8125,167.414056 C187.602905,168.838169 199.062335,167.554854 209.878906,173.390618 C209.878906,173.390618 240.515625,178.082025 260.742188,178.082025 C280.96875,178.082025 370.014919,186.367182 417.066406,186.367182 C576.967885,186.367182 699.963394,169.799704 759.691248,128.786845 Z" id="Oval-1-copy" stroke="#979797" fill-opacity="0.277113971" fill="#3594DD" sketch:type="MSShapeGroup"></path>
        <path d="M710.128893,92.9062491 C711.012164,91.4479634 718.882799,79.1874991 718.882799,79.1874991 C718.882799,79.1874991 721.665125,70.2367342 718.882799,66.9609372 C715.916841,63.4689389 708.080166,58.6793886 702.706469,56.066406 C666.885747,38.6484305 565.349372,41.0351562 469.499997,41.0351562 C395.355101,41.0351562 341.940281,45.1053355 289.238282,45.105361 C280.058598,45.1053654 267.001097,44.5302166 257.695313,45.105361 C243.909448,45.9573971 240.351561,41.6738954 229.089843,45.105361 C224.518563,46.4982379 216.706182,44.0341974 214.14453,45.105361 C210.395344,46.6730966 209.436348,49.2202355 209.714843,51.9296875 C209.79511,52.7106021 181.740268,58.585806 179.347657,61.3242188 C176.48107,64.6051091 150.387366,81.6744685 150.207032,83.2628708 C149.945546,85.5660615 171.192454,104.83982 172.406251,106.894531 C174.406914,110.281249 205.499998,116.351812 205.499998,118 C205.499998,127.120262 242.302945,123.54463 257.695315,130.386719 C285.379399,142.69262 309.617654,142.069089 360.437502,147.472656 C428.475848,154.707031 430.617975,154.707028 473.906262,154.707028 C601.207903,154.707028 686.937565,131.195316 710.128893,92.9062491 Z" id="Oval-1-copy-3" stroke="#979797" fill-opacity="0.277113971" fill="#3594DD" sketch:type="MSShapeGroup"></path>
        <path d="M648.324219,81.4633257 C648.324219,79.093179 642.697931,83.256427 643.543042,81.4633256 C645.910793,76.4395827 649.433844,73.2248888 642,69.265625 C620.957325,58.0582995 572.26356,59.9648438 526.53125,59.9648438 C487.126696,59.9648438 457.961847,54.8779598 434.25,59.9648438 C410.538154,65.0517285 397,76.0387102 397,87.6501403 C397,101.107426 426.43071,106.697245 447.328125,113.089844 C466.648438,119 480.773236,114.550888 498.082031,119 C505.797658,120.983252 532.501478,119.962722 542.703125,119 C617.210938,111.96875 648.324219,109.270787 648.324219,81.4633257 Z" id="Oval-1-copy-4" stroke="#979797" fill-opacity="0.277113971" fill="#3594DD" sketch:type="MSShapeGroup"></path>
    </g>
</svg>